<?xml version="1.0" encoding="UTF-8" standalone="no"?>
<svg width="27px" height="27px" viewBox="0 0 27 27" version="1.1" xmlns="http://www.w3.org/2000/svg" xmlns:xlink="http://www.w3.org/1999/xlink">
    <!-- Generator: Sketch 3.6 (26304) - http://www.bohemiancoding.com/sketch -->
    <title>Facebook</title>
    <desc>Created with Sketch.</desc>
    <defs></defs>
    <g id="Home" stroke="none" stroke-width="1" fill="none" fill-rule="evenodd">
        <g id="Desktop-HD" transform="translate(-687.000000, -342.000000)">
            <g id="header" transform="translate(-2.000000, 0.000000)">
                <g id="social" transform="translate(648.000000, 342.000000)">
                    <g id="Facebook" transform="translate(41.000000, 0.000000)">
                        <ellipse id="Oval-1" fill="#3B5998" cx="13.5" cy="13.5" rx="13.5" ry="13.5"></ellipse>
                        <path d="M11.6442857,20.0710978 L14.1030857,20.0710978 L14.1030857,13.3174237 L15.9476357,13.3174237 L16.3124357,11.2071446 L14.1030857,11.2071446 L14.1030857,9.67796552 C14.1030857,9.18500647 14.4218357,8.667422 14.8773857,8.667422 L16.1330357,8.667422 L16.1330357,6.55714286 L14.5941857,6.55714286 L14.5941857,6.56660263 C12.1863857,6.65399287 11.6916857,8.04848286 11.6487857,9.51324542 L11.6442857,9.51324542 L11.6442857,11.2071446 L10.4142857,11.2071446 L10.4142857,13.3174237 L11.6442857,13.3174237 L11.6442857,20.0710978 Z" id="Fill-4" fill="#FFFFFF"></path>
                    </g>
                </g>
            </g>
        </g>
    </g>
</svg>