<?xml version="1.0" encoding="UTF-8" standalone="no"?>
<svg width="27px" height="27px" viewBox="0 0 27 27" version="1.1" xmlns="http://www.w3.org/2000/svg" xmlns:xlink="http://www.w3.org/1999/xlink">
    <!-- Generator: Sketch 3.6 (26304) - http://www.bohemiancoding.com/sketch -->
    <title>Linkedin</title>
    <desc>Created with Sketch.</desc>
    <defs></defs>
    <g id="Home" stroke="none" stroke-width="1" fill="none" fill-rule="evenodd">
        <g id="Desktop-HD" transform="translate(-768.000000, -342.000000)">
            <g id="header" transform="translate(-2.000000, 0.000000)">
                <g id="social" transform="translate(648.000000, 342.000000)">
                    <g id="Linkedin" transform="translate(122.000000, 0.000000)">
                        <ellipse id="Oval-1-Copy-5" fill="#0976B4" cx="13.5" cy="13.5" rx="13.5" ry="13.5"></ellipse>
                        <path d="M8.24089286,10.0157803 C9.17029286,10.0157803 9.92374286,9.32867081 9.92374286,8.48014459 C9.92374286,7.6308676 9.17029286,6.94285714 8.24089286,6.94285714 C7.31059286,6.94285714 6.55714286,7.6308676 6.55714286,8.48014459 C6.55714286,9.32867081 7.31059286,10.0157803 8.24089286,10.0157803" id="Fill-182" fill="#FFFFFF"></path>
                        <path d="M6.94285714,19.894257 L9.96235714,19.894257 L9.96235714,11.1857143 L6.94285714,11.1857143 L6.94285714,19.894257 Z" id="Fill-183" fill="#FFFFFF"></path>
                        <path d="M14.2002643,15.0507394 C14.2002643,14.0520582 14.6727643,13.0754497 15.8025643,13.0754497 C16.9323643,13.0754497 17.2101643,14.0520582 17.2101643,15.0268648 L17.2101643,19.7830262 L20.2161643,19.7830262 L20.2161643,14.832414 C20.2161643,11.3929623 18.1830643,10.8 16.9323643,10.8 C15.6827143,10.8 14.9934643,11.2226865 14.2002643,12.2468941 L14.2002643,11.0744834 L11.1857143,11.0744834 L11.1857143,19.7830262 L14.2002643,19.7830262 L14.2002643,15.0507394 Z" id="Fill-184" fill="#FFFFFF"></path>
                    </g>
                </g>
            </g>
        </g>
    </g>
</svg>