<?xml version="1.0" encoding="UTF-8" standalone="no"?>
<svg width="27px" height="27px" viewBox="0 0 27 27" version="1.1" xmlns="http://www.w3.org/2000/svg" xmlns:xlink="http://www.w3.org/1999/xlink">
    <!-- Generator: Sketch 3.6 (26304) - http://www.bohemiancoding.com/sketch -->
    <title>Google Plus</title>
    <desc>Created with Sketch.</desc>
    <defs></defs>
    <g id="Home" stroke="none" stroke-width="1" fill="none" fill-rule="evenodd">
        <g id="Desktop-HD" transform="translate(-727.000000, -342.000000)">
            <g id="header" transform="translate(-2.000000, 0.000000)">
                <g id="social" transform="translate(648.000000, 342.000000)">
                    <g id="Google-Plus" transform="translate(81.000000, 0.000000)">
                        <ellipse id="Oval-1-Copy-6" fill="#DD4B39" cx="13.5" cy="13.5" rx="13.5" ry="13.5"></ellipse>
                        <path d="M6.56885359,13.448496 C6.60680359,11.1755989 8.69420359,9.18499334 10.9647536,9.26082164 C12.0525536,9.21036954 13.0752536,9.68425889 13.9085036,10.3498963 C13.5530036,10.7542638 13.1847536,11.1440663 12.7911536,11.5084927 C11.7896036,10.8153769 10.3649036,10.6174726 9.36335359,11.4179492 C7.93025359,12.4100236 7.86515359,14.7524425 9.24335359,15.8203452 C10.5837536,17.0379525 13.1174036,16.4332781 13.4877536,14.5691031 C12.6480536,14.5564901 11.8064036,14.5691031 10.9668536,14.5417749 C10.9647536,14.0404072 10.9626536,13.5390395 10.9647536,13.0376717 C12.3683036,13.0334674 13.7718536,13.0313652 15.1775036,13.0418761 C15.2616536,14.2214942 15.1059536,15.4769406 14.3820536,16.4523478 C13.2857036,17.9963923 11.0846036,18.4471577 9.36755359,17.7857247 C7.64420359,17.128496 6.42365359,15.3063645 6.56885359,13.448496" id="Fill-186" fill="#FFFFFF"></path>
                        <path d="M18.2402786,11.9571429 L19.4923286,11.9571429 C19.4944286,12.3763758 19.4965286,12.7975607 19.5007286,13.2167936 C19.9195286,13.220998 20.3402786,13.220998 20.7590786,13.2252023 L20.7590786,14.4785465 C20.3402786,14.4827509 19.9216286,14.484853 19.5007286,14.4890574 C19.4965286,14.9103925 19.4944286,15.3296254 19.4923286,15.7487081 L18.2381786,15.7487081 C18.2339786,15.3296254 18.2339786,14.9103925 18.2297786,14.4911596 C17.8109786,14.4869552 17.3900786,14.4827509 16.9714286,14.4785465 L16.9714286,13.2252023 C17.3900786,13.220998 17.8088786,13.2188958 18.2297786,13.2167936 C18.2318786,12.7954585 18.2360786,12.3763758 18.2402786,11.9571429" id="Fill-187" fill="#FFFFFF"></path>
                    </g>
                </g>
            </g>
        </g>
    </g>
</svg>