<?xml version="1.0" encoding="UTF-8" standalone="no"?>
<svg width="27px" height="27px" viewBox="0 0 27 27" version="1.1" xmlns="http://www.w3.org/2000/svg" xmlns:xlink="http://www.w3.org/1999/xlink">
    <!-- Generator: Sketch 3.6 (26304) - http://www.bohemiancoding.com/sketch -->
    <title>Twitter</title>
    <desc>Created with Sketch.</desc>
    <defs></defs>
    <g id="Home" stroke="none" stroke-width="1" fill="none" fill-rule="evenodd">
        <g id="Desktop-HD" transform="translate(-646.000000, -342.000000)">
            <g id="header" transform="translate(-2.000000, 0.000000)">
                <g id="social" transform="translate(648.000000, 342.000000)">
                    <g id="Twitter">
                        <ellipse id="Oval-1" fill="#55ACEE" cx="13.5" cy="13.5" rx="13.5" ry="13.5"></ellipse>
                        <path d="M19.6838229,8.33649429 C19.30278,8.58056571 18.4279114,8.93523429 17.9964514,8.93523429 L17.9964514,8.93596286 C17.5037914,8.4213 16.8101914,8.1 16.0409657,8.1 C14.5469571,8.1 13.3354886,9.31146857 13.3354886,10.8048943 C13.3354886,11.0123914 13.3595314,11.2147886 13.4039743,11.40888 L13.4035371,11.40888 C11.3769429,11.3556943 9.16048286,10.33992 7.82617714,8.60140286 C7.00580571,10.0213886 7.71572571,11.60064 8.64669429,12.1760657 C8.32801714,12.2001086 7.74137143,12.1393457 7.46524286,11.86992 C7.44673714,12.8124 7.89990857,14.0611714 9.55230857,14.5141971 C9.23406857,14.6854114 8.67073714,14.6363057 8.42579143,14.5998771 C8.51176286,15.3954771 9.62589429,16.4355857 10.8442114,16.4355857 C10.4099829,16.9378629 8.77623429,17.8488686 6.94285714,17.5590429 C8.18798571,18.3166114 9.63915429,18.7553571 11.1751286,18.7553571 C15.54,18.7553571 18.9297514,15.2178514 18.7473171,10.8538543 C18.7465886,10.8490457 18.7465886,10.8442371 18.7461514,10.8389914 C18.7465886,10.8277714 18.7473171,10.8165514 18.7473171,10.8048943 C18.7473171,10.7913429 18.7461514,10.77852 18.7457143,10.7654057 C19.1430771,10.4936486 19.6762457,10.0129371 20.0571429,9.38024571 C19.83624,9.50191714 19.1735314,9.74555143 18.5568686,9.80602286 C18.9526286,9.59240571 19.5389829,8.89283143 19.6838229,8.33649429" id="Fill-1" fill="#FFFFFF"></path>
                    </g>
                </g>
            </g>
        </g>
    </g>
</svg>